%TF.GenerationSoftware,KiCad,Pcbnew,10.0.4*%
%TF.CreationDate,2026-07-13T22:11:00-06:00*%
%TF.ProjectId,firstpcb,66697273-7470-4636-922e-6b696361645f,rev?*%
%TF.SameCoordinates,Original*%
%TF.FileFunction,Legend,Top*%
%TF.FilePolarity,Positive*%
%FSLAX46Y46*%
G04 Gerber Fmt 4.6, Leading zero omitted, Abs format (unit mm)*
G04 Created by KiCad (PCBNEW 10.0.4) date 2026-07-13 22:11:00*
%MOMM*%
%LPD*%
G01*
G04 APERTURE LIST*
%ADD10C,0.100000*%
%ADD11C,0.101600*%
%ADD12C,0.150000*%
%ADD13C,0.025400*%
%ADD14C,0.254000*%
%ADD15C,0.120000*%
%ADD16C,0.127000*%
%TA.AperFunction,Profile*%
%ADD17C,0.050000*%
%TD*%
G04 APERTURE END LIST*
D10*
X115936646Y-19246121D02*
X116517217Y-19246121D01*
X116517217Y-16923836D02*
X116517217Y-19246121D01*
X117581598Y-17407645D02*
X116807503Y-18181740D01*
X115356074Y-17697931D02*
X116226931Y-17697931D01*
X116226931Y-17697931D02*
X115839884Y-18472026D01*
X115839884Y-18472026D02*
X115356074Y-18955836D01*
X116517217Y-17407645D02*
X116904265Y-18375264D01*
X116904265Y-18375264D02*
X117388074Y-18859074D01*
X117388074Y-18859074D02*
X117775122Y-18955836D01*
X118258931Y-18278502D02*
X120774741Y-18278502D01*
X118452455Y-17117360D02*
X120581217Y-17117360D01*
X118742741Y-17504407D02*
X118839503Y-17988217D01*
X119516836Y-17117360D02*
X119516836Y-19246121D01*
X120290931Y-17504407D02*
X120097408Y-17988217D01*
X121258550Y-18181740D02*
X122129407Y-18181740D01*
X121452074Y-18472026D02*
X121258550Y-19052598D01*
X121645598Y-16923836D02*
X121452074Y-17504407D01*
X121742360Y-18084979D02*
X121742360Y-19246121D01*
X121935884Y-17794693D02*
X122129407Y-18278502D01*
X121935884Y-17214121D02*
X121742360Y-17794693D01*
X122032646Y-18472026D02*
X122129407Y-18859074D01*
X122419693Y-17988217D02*
X123580836Y-17988217D01*
X122419693Y-17601169D02*
X123580836Y-17601169D01*
X122419693Y-17214121D02*
X122419693Y-17988217D01*
X122613217Y-19246121D02*
X123000265Y-19246121D01*
X122903503Y-16923836D02*
X122806741Y-17214121D01*
X123000265Y-17988217D02*
X123000265Y-19246121D01*
X123580836Y-18278502D02*
X123290550Y-18568788D01*
X121355312Y-17407645D02*
X121742360Y-17794693D01*
X121742360Y-17794693D02*
X121355312Y-18084979D01*
X122419693Y-17214121D02*
X123580836Y-17214121D01*
X123580836Y-17214121D02*
X123677598Y-17988217D01*
X123000265Y-18181740D02*
X123290550Y-18665550D01*
X123290550Y-18665550D02*
X123677598Y-19149360D01*
X122322931Y-18472026D02*
X122806741Y-18472026D01*
X122806741Y-18472026D02*
X122613217Y-18859074D01*
X122613217Y-18859074D02*
X122226169Y-19149360D01*
D11*
X62176985Y-28052333D02*
X62896652Y-28052333D01*
X62896652Y-28052333D02*
X62981318Y-28010000D01*
X62981318Y-28010000D02*
X63023652Y-27967666D01*
X63023652Y-27967666D02*
X63065985Y-27883000D01*
X63065985Y-27883000D02*
X63065985Y-27713666D01*
X63065985Y-27713666D02*
X63023652Y-27629000D01*
X63023652Y-27629000D02*
X62981318Y-27586666D01*
X62981318Y-27586666D02*
X62896652Y-27544333D01*
X62896652Y-27544333D02*
X62176985Y-27544333D01*
X63065985Y-26655333D02*
X63065985Y-27163333D01*
X63065985Y-26909333D02*
X62176985Y-26909333D01*
X62176985Y-26909333D02*
X62303985Y-26994000D01*
X62303985Y-26994000D02*
X62388652Y-27078667D01*
X62388652Y-27078667D02*
X62430985Y-27163333D01*
D12*
X60074819Y-28898808D02*
X61074819Y-28232142D01*
X60074819Y-28232142D02*
X61074819Y-28898808D01*
X61074819Y-27851189D02*
X60074819Y-27851189D01*
X60789104Y-27422618D02*
X60789104Y-26946428D01*
X61074819Y-27517856D02*
X60074819Y-27184523D01*
X60074819Y-27184523D02*
X61074819Y-26851190D01*
X60074819Y-26327380D02*
X60074819Y-26136904D01*
X60074819Y-26136904D02*
X60122438Y-26041666D01*
X60122438Y-26041666D02*
X60217676Y-25946428D01*
X60217676Y-25946428D02*
X60408152Y-25898809D01*
X60408152Y-25898809D02*
X60741485Y-25898809D01*
X60741485Y-25898809D02*
X60931961Y-25946428D01*
X60931961Y-25946428D02*
X61027200Y-26041666D01*
X61027200Y-26041666D02*
X61074819Y-26136904D01*
X61074819Y-26136904D02*
X61074819Y-26327380D01*
X61074819Y-26327380D02*
X61027200Y-26422618D01*
X61027200Y-26422618D02*
X60931961Y-26517856D01*
X60931961Y-26517856D02*
X60741485Y-26565475D01*
X60741485Y-26565475D02*
X60408152Y-26565475D01*
X60408152Y-26565475D02*
X60217676Y-26517856D01*
X60217676Y-26517856D02*
X60122438Y-26422618D01*
X60122438Y-26422618D02*
X60074819Y-26327380D01*
X59027200Y-32136904D02*
X59074819Y-31994047D01*
X59074819Y-31994047D02*
X59074819Y-31755952D01*
X59074819Y-31755952D02*
X59027200Y-31660714D01*
X59027200Y-31660714D02*
X58979580Y-31613095D01*
X58979580Y-31613095D02*
X58884342Y-31565476D01*
X58884342Y-31565476D02*
X58789104Y-31565476D01*
X58789104Y-31565476D02*
X58693866Y-31613095D01*
X58693866Y-31613095D02*
X58646247Y-31660714D01*
X58646247Y-31660714D02*
X58598628Y-31755952D01*
X58598628Y-31755952D02*
X58551009Y-31946428D01*
X58551009Y-31946428D02*
X58503390Y-32041666D01*
X58503390Y-32041666D02*
X58455771Y-32089285D01*
X58455771Y-32089285D02*
X58360533Y-32136904D01*
X58360533Y-32136904D02*
X58265295Y-32136904D01*
X58265295Y-32136904D02*
X58170057Y-32089285D01*
X58170057Y-32089285D02*
X58122438Y-32041666D01*
X58122438Y-32041666D02*
X58074819Y-31946428D01*
X58074819Y-31946428D02*
X58074819Y-31708333D01*
X58074819Y-31708333D02*
X58122438Y-31565476D01*
X59027200Y-30755952D02*
X59074819Y-30851190D01*
X59074819Y-30851190D02*
X59074819Y-31041666D01*
X59074819Y-31041666D02*
X59027200Y-31136904D01*
X59027200Y-31136904D02*
X58931961Y-31184523D01*
X58931961Y-31184523D02*
X58551009Y-31184523D01*
X58551009Y-31184523D02*
X58455771Y-31136904D01*
X58455771Y-31136904D02*
X58408152Y-31041666D01*
X58408152Y-31041666D02*
X58408152Y-30851190D01*
X58408152Y-30851190D02*
X58455771Y-30755952D01*
X58455771Y-30755952D02*
X58551009Y-30708333D01*
X58551009Y-30708333D02*
X58646247Y-30708333D01*
X58646247Y-30708333D02*
X58741485Y-31184523D01*
X59027200Y-29898809D02*
X59074819Y-29994047D01*
X59074819Y-29994047D02*
X59074819Y-30184523D01*
X59074819Y-30184523D02*
X59027200Y-30279761D01*
X59027200Y-30279761D02*
X58931961Y-30327380D01*
X58931961Y-30327380D02*
X58551009Y-30327380D01*
X58551009Y-30327380D02*
X58455771Y-30279761D01*
X58455771Y-30279761D02*
X58408152Y-30184523D01*
X58408152Y-30184523D02*
X58408152Y-29994047D01*
X58408152Y-29994047D02*
X58455771Y-29898809D01*
X58455771Y-29898809D02*
X58551009Y-29851190D01*
X58551009Y-29851190D02*
X58646247Y-29851190D01*
X58646247Y-29851190D02*
X58741485Y-30327380D01*
X59027200Y-29041666D02*
X59074819Y-29136904D01*
X59074819Y-29136904D02*
X59074819Y-29327380D01*
X59074819Y-29327380D02*
X59027200Y-29422618D01*
X59027200Y-29422618D02*
X58931961Y-29470237D01*
X58931961Y-29470237D02*
X58551009Y-29470237D01*
X58551009Y-29470237D02*
X58455771Y-29422618D01*
X58455771Y-29422618D02*
X58408152Y-29327380D01*
X58408152Y-29327380D02*
X58408152Y-29136904D01*
X58408152Y-29136904D02*
X58455771Y-29041666D01*
X58455771Y-29041666D02*
X58551009Y-28994047D01*
X58551009Y-28994047D02*
X58646247Y-28994047D01*
X58646247Y-28994047D02*
X58741485Y-29470237D01*
X59074819Y-28136904D02*
X58074819Y-28136904D01*
X59027200Y-28136904D02*
X59074819Y-28232142D01*
X59074819Y-28232142D02*
X59074819Y-28422618D01*
X59074819Y-28422618D02*
X59027200Y-28517856D01*
X59027200Y-28517856D02*
X58979580Y-28565475D01*
X58979580Y-28565475D02*
X58884342Y-28613094D01*
X58884342Y-28613094D02*
X58598628Y-28613094D01*
X58598628Y-28613094D02*
X58503390Y-28565475D01*
X58503390Y-28565475D02*
X58455771Y-28517856D01*
X58455771Y-28517856D02*
X58408152Y-28422618D01*
X58408152Y-28422618D02*
X58408152Y-28232142D01*
X58408152Y-28232142D02*
X58455771Y-28136904D01*
X59027200Y-26946427D02*
X59074819Y-26803570D01*
X59074819Y-26803570D02*
X59074819Y-26565475D01*
X59074819Y-26565475D02*
X59027200Y-26470237D01*
X59027200Y-26470237D02*
X58979580Y-26422618D01*
X58979580Y-26422618D02*
X58884342Y-26374999D01*
X58884342Y-26374999D02*
X58789104Y-26374999D01*
X58789104Y-26374999D02*
X58693866Y-26422618D01*
X58693866Y-26422618D02*
X58646247Y-26470237D01*
X58646247Y-26470237D02*
X58598628Y-26565475D01*
X58598628Y-26565475D02*
X58551009Y-26755951D01*
X58551009Y-26755951D02*
X58503390Y-26851189D01*
X58503390Y-26851189D02*
X58455771Y-26898808D01*
X58455771Y-26898808D02*
X58360533Y-26946427D01*
X58360533Y-26946427D02*
X58265295Y-26946427D01*
X58265295Y-26946427D02*
X58170057Y-26898808D01*
X58170057Y-26898808D02*
X58122438Y-26851189D01*
X58122438Y-26851189D02*
X58074819Y-26755951D01*
X58074819Y-26755951D02*
X58074819Y-26517856D01*
X58074819Y-26517856D02*
X58122438Y-26374999D01*
X58408152Y-26089284D02*
X58408152Y-25708332D01*
X58074819Y-25946427D02*
X58931961Y-25946427D01*
X58931961Y-25946427D02*
X59027200Y-25898808D01*
X59027200Y-25898808D02*
X59074819Y-25803570D01*
X59074819Y-25803570D02*
X59074819Y-25708332D01*
X58408152Y-24946427D02*
X59074819Y-24946427D01*
X58408152Y-25374998D02*
X58931961Y-25374998D01*
X58931961Y-25374998D02*
X59027200Y-25327379D01*
X59027200Y-25327379D02*
X59074819Y-25232141D01*
X59074819Y-25232141D02*
X59074819Y-25089284D01*
X59074819Y-25089284D02*
X59027200Y-24994046D01*
X59027200Y-24994046D02*
X58979580Y-24946427D01*
X59074819Y-24041665D02*
X58074819Y-24041665D01*
X59027200Y-24041665D02*
X59074819Y-24136903D01*
X59074819Y-24136903D02*
X59074819Y-24327379D01*
X59074819Y-24327379D02*
X59027200Y-24422617D01*
X59027200Y-24422617D02*
X58979580Y-24470236D01*
X58979580Y-24470236D02*
X58884342Y-24517855D01*
X58884342Y-24517855D02*
X58598628Y-24517855D01*
X58598628Y-24517855D02*
X58503390Y-24470236D01*
X58503390Y-24470236D02*
X58455771Y-24422617D01*
X58455771Y-24422617D02*
X58408152Y-24327379D01*
X58408152Y-24327379D02*
X58408152Y-24136903D01*
X58408152Y-24136903D02*
X58455771Y-24041665D01*
X59074819Y-23565474D02*
X58408152Y-23565474D01*
X58074819Y-23565474D02*
X58122438Y-23613093D01*
X58122438Y-23613093D02*
X58170057Y-23565474D01*
X58170057Y-23565474D02*
X58122438Y-23517855D01*
X58122438Y-23517855D02*
X58074819Y-23565474D01*
X58074819Y-23565474D02*
X58170057Y-23565474D01*
X59074819Y-22946427D02*
X59027200Y-23041665D01*
X59027200Y-23041665D02*
X58979580Y-23089284D01*
X58979580Y-23089284D02*
X58884342Y-23136903D01*
X58884342Y-23136903D02*
X58598628Y-23136903D01*
X58598628Y-23136903D02*
X58503390Y-23089284D01*
X58503390Y-23089284D02*
X58455771Y-23041665D01*
X58455771Y-23041665D02*
X58408152Y-22946427D01*
X58408152Y-22946427D02*
X58408152Y-22803570D01*
X58408152Y-22803570D02*
X58455771Y-22708332D01*
X58455771Y-22708332D02*
X58503390Y-22660713D01*
X58503390Y-22660713D02*
X58598628Y-22613094D01*
X58598628Y-22613094D02*
X58884342Y-22613094D01*
X58884342Y-22613094D02*
X58979580Y-22660713D01*
X58979580Y-22660713D02*
X59027200Y-22708332D01*
X59027200Y-22708332D02*
X59074819Y-22803570D01*
X59074819Y-22803570D02*
X59074819Y-22946427D01*
X96166667Y-42033200D02*
X96309524Y-42080819D01*
X96309524Y-42080819D02*
X96547619Y-42080819D01*
X96547619Y-42080819D02*
X96642857Y-42033200D01*
X96642857Y-42033200D02*
X96690476Y-41985580D01*
X96690476Y-41985580D02*
X96738095Y-41890342D01*
X96738095Y-41890342D02*
X96738095Y-41795104D01*
X96738095Y-41795104D02*
X96690476Y-41699866D01*
X96690476Y-41699866D02*
X96642857Y-41652247D01*
X96642857Y-41652247D02*
X96547619Y-41604628D01*
X96547619Y-41604628D02*
X96357143Y-41557009D01*
X96357143Y-41557009D02*
X96261905Y-41509390D01*
X96261905Y-41509390D02*
X96214286Y-41461771D01*
X96214286Y-41461771D02*
X96166667Y-41366533D01*
X96166667Y-41366533D02*
X96166667Y-41271295D01*
X96166667Y-41271295D02*
X96214286Y-41176057D01*
X96214286Y-41176057D02*
X96261905Y-41128438D01*
X96261905Y-41128438D02*
X96357143Y-41080819D01*
X96357143Y-41080819D02*
X96595238Y-41080819D01*
X96595238Y-41080819D02*
X96738095Y-41128438D01*
X97071429Y-41080819D02*
X97309524Y-42080819D01*
X97309524Y-42080819D02*
X97500000Y-41366533D01*
X97500000Y-41366533D02*
X97690476Y-42080819D01*
X97690476Y-42080819D02*
X97928572Y-41080819D01*
X98214286Y-41080819D02*
X98833333Y-41080819D01*
X98833333Y-41080819D02*
X98500000Y-41461771D01*
X98500000Y-41461771D02*
X98642857Y-41461771D01*
X98642857Y-41461771D02*
X98738095Y-41509390D01*
X98738095Y-41509390D02*
X98785714Y-41557009D01*
X98785714Y-41557009D02*
X98833333Y-41652247D01*
X98833333Y-41652247D02*
X98833333Y-41890342D01*
X98833333Y-41890342D02*
X98785714Y-41985580D01*
X98785714Y-41985580D02*
X98738095Y-42033200D01*
X98738095Y-42033200D02*
X98642857Y-42080819D01*
X98642857Y-42080819D02*
X98357143Y-42080819D01*
X98357143Y-42080819D02*
X98261905Y-42033200D01*
X98261905Y-42033200D02*
X98214286Y-41985580D01*
X58066667Y-42033200D02*
X58209524Y-42080819D01*
X58209524Y-42080819D02*
X58447619Y-42080819D01*
X58447619Y-42080819D02*
X58542857Y-42033200D01*
X58542857Y-42033200D02*
X58590476Y-41985580D01*
X58590476Y-41985580D02*
X58638095Y-41890342D01*
X58638095Y-41890342D02*
X58638095Y-41795104D01*
X58638095Y-41795104D02*
X58590476Y-41699866D01*
X58590476Y-41699866D02*
X58542857Y-41652247D01*
X58542857Y-41652247D02*
X58447619Y-41604628D01*
X58447619Y-41604628D02*
X58257143Y-41557009D01*
X58257143Y-41557009D02*
X58161905Y-41509390D01*
X58161905Y-41509390D02*
X58114286Y-41461771D01*
X58114286Y-41461771D02*
X58066667Y-41366533D01*
X58066667Y-41366533D02*
X58066667Y-41271295D01*
X58066667Y-41271295D02*
X58114286Y-41176057D01*
X58114286Y-41176057D02*
X58161905Y-41128438D01*
X58161905Y-41128438D02*
X58257143Y-41080819D01*
X58257143Y-41080819D02*
X58495238Y-41080819D01*
X58495238Y-41080819D02*
X58638095Y-41128438D01*
X58971429Y-41080819D02*
X59209524Y-42080819D01*
X59209524Y-42080819D02*
X59400000Y-41366533D01*
X59400000Y-41366533D02*
X59590476Y-42080819D01*
X59590476Y-42080819D02*
X59828572Y-41080819D01*
X60733333Y-42080819D02*
X60161905Y-42080819D01*
X60447619Y-42080819D02*
X60447619Y-41080819D01*
X60447619Y-41080819D02*
X60352381Y-41223676D01*
X60352381Y-41223676D02*
X60257143Y-41318914D01*
X60257143Y-41318914D02*
X60161905Y-41366533D01*
X115216667Y-42033200D02*
X115359524Y-42080819D01*
X115359524Y-42080819D02*
X115597619Y-42080819D01*
X115597619Y-42080819D02*
X115692857Y-42033200D01*
X115692857Y-42033200D02*
X115740476Y-41985580D01*
X115740476Y-41985580D02*
X115788095Y-41890342D01*
X115788095Y-41890342D02*
X115788095Y-41795104D01*
X115788095Y-41795104D02*
X115740476Y-41699866D01*
X115740476Y-41699866D02*
X115692857Y-41652247D01*
X115692857Y-41652247D02*
X115597619Y-41604628D01*
X115597619Y-41604628D02*
X115407143Y-41557009D01*
X115407143Y-41557009D02*
X115311905Y-41509390D01*
X115311905Y-41509390D02*
X115264286Y-41461771D01*
X115264286Y-41461771D02*
X115216667Y-41366533D01*
X115216667Y-41366533D02*
X115216667Y-41271295D01*
X115216667Y-41271295D02*
X115264286Y-41176057D01*
X115264286Y-41176057D02*
X115311905Y-41128438D01*
X115311905Y-41128438D02*
X115407143Y-41080819D01*
X115407143Y-41080819D02*
X115645238Y-41080819D01*
X115645238Y-41080819D02*
X115788095Y-41128438D01*
X116121429Y-41080819D02*
X116359524Y-42080819D01*
X116359524Y-42080819D02*
X116550000Y-41366533D01*
X116550000Y-41366533D02*
X116740476Y-42080819D01*
X116740476Y-42080819D02*
X116978572Y-41080819D01*
X117788095Y-41414152D02*
X117788095Y-42080819D01*
X117550000Y-41033200D02*
X117311905Y-41747485D01*
X117311905Y-41747485D02*
X117930952Y-41747485D01*
X77116667Y-42033200D02*
X77259524Y-42080819D01*
X77259524Y-42080819D02*
X77497619Y-42080819D01*
X77497619Y-42080819D02*
X77592857Y-42033200D01*
X77592857Y-42033200D02*
X77640476Y-41985580D01*
X77640476Y-41985580D02*
X77688095Y-41890342D01*
X77688095Y-41890342D02*
X77688095Y-41795104D01*
X77688095Y-41795104D02*
X77640476Y-41699866D01*
X77640476Y-41699866D02*
X77592857Y-41652247D01*
X77592857Y-41652247D02*
X77497619Y-41604628D01*
X77497619Y-41604628D02*
X77307143Y-41557009D01*
X77307143Y-41557009D02*
X77211905Y-41509390D01*
X77211905Y-41509390D02*
X77164286Y-41461771D01*
X77164286Y-41461771D02*
X77116667Y-41366533D01*
X77116667Y-41366533D02*
X77116667Y-41271295D01*
X77116667Y-41271295D02*
X77164286Y-41176057D01*
X77164286Y-41176057D02*
X77211905Y-41128438D01*
X77211905Y-41128438D02*
X77307143Y-41080819D01*
X77307143Y-41080819D02*
X77545238Y-41080819D01*
X77545238Y-41080819D02*
X77688095Y-41128438D01*
X78021429Y-41080819D02*
X78259524Y-42080819D01*
X78259524Y-42080819D02*
X78450000Y-41366533D01*
X78450000Y-41366533D02*
X78640476Y-42080819D01*
X78640476Y-42080819D02*
X78878572Y-41080819D01*
X79211905Y-41176057D02*
X79259524Y-41128438D01*
X79259524Y-41128438D02*
X79354762Y-41080819D01*
X79354762Y-41080819D02*
X79592857Y-41080819D01*
X79592857Y-41080819D02*
X79688095Y-41128438D01*
X79688095Y-41128438D02*
X79735714Y-41176057D01*
X79735714Y-41176057D02*
X79783333Y-41271295D01*
X79783333Y-41271295D02*
X79783333Y-41366533D01*
X79783333Y-41366533D02*
X79735714Y-41509390D01*
X79735714Y-41509390D02*
X79164286Y-42080819D01*
X79164286Y-42080819D02*
X79783333Y-42080819D01*
D13*
%TO.C,U1*%
X68641574Y-18485508D02*
X68690850Y-18487287D01*
X68739618Y-18490335D01*
X68788639Y-18494399D01*
X68837407Y-18499732D01*
X68886175Y-18506336D01*
X68934690Y-18513956D01*
X68982950Y-18522847D01*
X69030955Y-18532752D01*
X68641574Y-18485508D01*
X51558295Y-36262715D02*
X51509527Y-36259667D01*
X51460506Y-36255603D01*
X51558295Y-36262715D01*
D14*
X51447000Y-38375000D02*
G75*
G02*
X51193000Y-38375000I-127000J0D01*
G01*
X51193000Y-38375000D02*
G75*
G02*
X51447000Y-38375000I127000J0D01*
G01*
D15*
X70620000Y-34275000D02*
G75*
G02*
X68620000Y-36275000I-2044857J44857D01*
G01*
X68620000Y-18475000D02*
G75*
G02*
X70620000Y-20475000I0J-2000000D01*
G01*
X51620000Y-36275000D02*
G75*
G02*
X49620000Y-34275000I44612J2044612D01*
G01*
X49620000Y-20475000D02*
G75*
G02*
X51620000Y-18475000I2044610J-44610D01*
G01*
D16*
X70620000Y-34275000D02*
X70620000Y-20475000D01*
X68620000Y-18475000D02*
X51620000Y-18475000D01*
X55549270Y-31875000D02*
X48195970Y-31875000D01*
X55549270Y-22875000D02*
X55549270Y-31875000D01*
X51620000Y-36275000D02*
X68620000Y-36275000D01*
X49620910Y-20475000D02*
X49620910Y-34275000D01*
X48195970Y-31875000D02*
X48195970Y-22875000D01*
X48195970Y-22875000D02*
X55549270Y-22875000D01*
%TO.C,SW3*%
D15*
X104485000Y-56485000D02*
X90515000Y-56485000D01*
X104485000Y-42515000D02*
X104485000Y-56485000D01*
X90515000Y-56485000D02*
X90515000Y-42515000D01*
X90515000Y-42515000D02*
X104485000Y-42515000D01*
%TO.C,SW1*%
X66385000Y-56485000D02*
X52415000Y-56485000D01*
X66385000Y-42515000D02*
X66385000Y-56485000D01*
X52415000Y-56485000D02*
X52415000Y-42515000D01*
X52415000Y-42515000D02*
X66385000Y-42515000D01*
%TO.C,SW4*%
X123535000Y-56485000D02*
X109565000Y-56485000D01*
X123535000Y-42515000D02*
X123535000Y-56485000D01*
X109565000Y-56485000D02*
X109565000Y-42515000D01*
X109565000Y-42515000D02*
X123535000Y-42515000D01*
%TO.C,SW2*%
X85435000Y-56485000D02*
X71465000Y-56485000D01*
X85435000Y-42515000D02*
X85435000Y-56485000D01*
X71465000Y-56485000D02*
X71465000Y-42515000D01*
X71465000Y-42515000D02*
X85435000Y-42515000D01*
%TD*%
D17*
X49530000Y-15240000D02*
X126492000Y-15240000D01*
X126492000Y-60960000D01*
X49530000Y-60960000D01*
X49530000Y-15240000D01*
M02*
