%TF.GenerationSoftware,KiCad,Pcbnew,10.0.4*%
%TF.CreationDate,2026-07-13T22:11:00-06:00*%
%TF.ProjectId,firstpcb,66697273-7470-4636-922e-6b696361645f,rev?*%
%TF.SameCoordinates,Original*%
%TF.FileFunction,Copper,L2,Bot*%
%TF.FilePolarity,Positive*%
%FSLAX46Y46*%
G04 Gerber Fmt 4.6, Leading zero omitted, Abs format (unit mm)*
G04 Created by KiCad (PCBNEW 10.0.4) date 2026-07-13 22:11:00*
%MOMM*%
%LPD*%
G01*
G04 APERTURE LIST*
%TA.AperFunction,ComponentPad*%
%ADD10O,1.700000X3.700000*%
%TD*%
%TA.AperFunction,ComponentPad*%
%ADD11O,1.700000X3.600000*%
%TD*%
%TA.AperFunction,ComponentPad*%
%ADD12R,1.700000X3.500000*%
%TD*%
%TA.AperFunction,ComponentPad*%
%ADD13C,2.200000*%
%TD*%
%TA.AperFunction,Conductor*%
%ADD14C,0.200000*%
%TD*%
%TA.AperFunction,Profile*%
%ADD15C,0.050000*%
%TD*%
G04 APERTURE END LIST*
D10*
%TO.P,U1,14,5V_14*%
%TO.N,unconnected-(U1-5V-Pad14)*%
X52500000Y-18750000D03*
%TO.P,U1,13,GND_13*%
%TO.N,GND*%
X55040000Y-18750000D03*
%TO.P,U1,12,3V3_12*%
%TO.N,unconnected-(U1-3V3-Pad12)*%
X57580000Y-18750000D03*
%TO.P,U1,11,PA6_A10_D10_MOSI_11*%
%TO.N,unconnected-(U1-PA6_A10_D10_MOSI-Pad11)*%
X60120000Y-18750000D03*
D11*
%TO.P,U1,10,PA5_A9_D9_MISO_10*%
%TO.N,unconnected-(U1-PA5_A9_D9_MISO-Pad10)*%
X62660000Y-18750000D03*
%TO.P,U1,9,PA7_A8_D8_SCK_9*%
%TO.N,unconnected-(U1-PA7_A8_D8_SCK-Pad9)*%
X65200000Y-18750000D03*
%TO.P,U1,8,PB09_A7_D7_RX_8*%
%TO.N,unconnected-(U1-PB09_A7_D7_RX-Pad8)*%
X67740000Y-18750000D03*
%TO.P,U1,7,PB08_A6_D6_TX_7*%
%TO.N,unconnected-(U1-PB08_A6_D6_TX-Pad7)*%
X67740000Y-36000000D03*
%TO.P,U1,6,PA9_A5_D5_SCL_6*%
%TO.N,unconnected-(U1-PA9_A5_D5_SCL-Pad6)*%
X65200000Y-36000000D03*
%TO.P,U1,5,PA8_A4_D4_SDA_5*%
%TO.N,unconnected-(U1-PA8_A4_D4_SDA-Pad5)*%
X62660000Y-36000000D03*
%TO.P,U1,4,PA11_A3_D3_4*%
%TO.N,Net-(U1-PA11_A3_D3)*%
X60120000Y-36000000D03*
%TO.P,U1,3,PA10_A2_D2_3*%
%TO.N,Net-(U1-PA10_A2_D2)*%
X57580000Y-36000000D03*
%TO.P,U1,2,PA4_A1_D1_2*%
%TO.N,Net-(U1-PA4_A1_D1)*%
X55040000Y-36000000D03*
D12*
%TO.P,U1,1,PA02_A0_D0_1*%
%TO.N,Net-(U1-PA02_A0_D0)*%
X52500000Y-36000000D03*
%TD*%
D13*
%TO.P,SW3,2,2_2*%
%TO.N,Net-(U1-PA10_A2_D2)*%
X93690000Y-46960000D03*
%TO.P,SW3,1,1_1*%
%TO.N,GND*%
X100040000Y-44420000D03*
%TD*%
%TO.P,SW1,2,2_2*%
%TO.N,Net-(U1-PA02_A0_D0)*%
X55590000Y-46960000D03*
%TO.P,SW1,1,1_1*%
%TO.N,GND*%
X61940000Y-44420000D03*
%TD*%
%TO.P,SW4,2,2_2*%
%TO.N,Net-(U1-PA11_A3_D3)*%
X112740000Y-46960000D03*
%TO.P,SW4,1,1_1*%
%TO.N,GND*%
X119090000Y-44420000D03*
%TD*%
%TO.P,SW2,2,2_2*%
%TO.N,Net-(U1-PA4_A1_D1)*%
X74640000Y-46960000D03*
%TO.P,SW2,1,1_1*%
%TO.N,GND*%
X80990000Y-44420000D03*
%TD*%
%TO.N,Net-(U1-PA02_A0_D0)*%
D14*
X52300000Y-43740000D02*
X52300000Y-35000000D01*
X55550000Y-46990000D02*
X52300000Y-43740000D01*
%TO.N,GND*%
X61900000Y-44450000D02*
X61900000Y-44400000D01*
X61900000Y-44400000D02*
X61500000Y-44000000D01*
%TO.N,Net-(U1-PA4_A1_D1)*%
X61990000Y-46990000D02*
X54840000Y-39840000D01*
X74600000Y-46990000D02*
X61990000Y-46990000D01*
X54840000Y-39840000D02*
X54840000Y-35000000D01*
%TO.N,Net-(U1-PA10_A2_D2)*%
X77500000Y-45000000D02*
X64500000Y-45000000D01*
X57380000Y-37880000D02*
X57380000Y-35000000D01*
X93650000Y-46990000D02*
X79490000Y-46990000D01*
X64500000Y-45000000D02*
X57380000Y-37880000D01*
X79490000Y-46990000D02*
X77500000Y-45000000D01*
%TO.N,Net-(U1-PA11_A3_D3)*%
X59920000Y-36036346D02*
X59920000Y-35000000D01*
X65383654Y-41500000D02*
X59920000Y-36036346D01*
X107210000Y-41500000D02*
X65383654Y-41500000D01*
X112700000Y-46990000D02*
X107210000Y-41500000D01*
%TD*%
D15*
X49530000Y-15240000D02*
X126492000Y-15240000D01*
X126492000Y-60960000D01*
X49530000Y-60960000D01*
X49530000Y-15240000D01*
M02*
